<svg width="128" height="128" viewBox="0 0 128 128" fill="none" xmlns="http://www.w3.org/2000/svg">
<rect width="128" height="128" rx="25" fill="#E4E4E7"/>
<path fill-rule="evenodd" clip-rule="evenodd" d="M33.1193 25.355C35.2924 23.2068 38.2399 22 41.3132 22H69.8967C72.0299 22 73.7593 23.7095 73.7593 25.8182C73.7593 27.9269 72.0299 29.6364 69.8967 29.6364H41.3132C40.2887 29.6364 39.3063 30.0386 38.5819 30.7547C37.8575 31.4707 37.4505 32.4419 37.4505 33.4545V94.5455C37.4505 95.5581 37.8575 96.5293 38.5819 97.2453C39.3063 97.9614 40.2887 98.3636 41.3132 98.3636H87.6648C88.6892 98.3636 89.6717 97.9614 90.3961 97.2453C91.1205 96.5293 91.5274 95.5581 91.5274 94.5455V66.2909C91.5274 64.1822 93.2568 62.4727 95.3901 62.4727C97.5233 62.4727 99.2527 64.1822 99.2527 66.2909V94.5455C99.2527 97.5834 98.0318 100.497 95.8587 102.645C93.6855 104.793 90.7381 106 87.6648 106H41.3132C38.2399 106 35.2924 104.793 33.1193 102.645C30.9461 100.497 29.7253 97.5834 29.7253 94.5455V33.4545C29.7253 30.4166 30.9461 27.5031 33.1193 25.355Z" fill="#18181B"/>
<path fill-rule="evenodd" clip-rule="evenodd" d="M22 41.0909C22 38.9822 23.7294 37.2727 25.8626 37.2727H41.3132C43.4464 37.2727 45.1758 38.9822 45.1758 41.0909C45.1758 43.1996 43.4464 44.9091 41.3132 44.9091H25.8626C23.7294 44.9091 22 43.1996 22 41.0909Z" fill="#18181B"/>
<path fill-rule="evenodd" clip-rule="evenodd" d="M22 56.3636C22 54.2549 23.7294 52.5455 25.8626 52.5455H41.3132C43.4464 52.5455 45.1758 54.2549 45.1758 56.3636C45.1758 58.4724 43.4464 60.1818 41.3132 60.1818H25.8626C23.7294 60.1818 22 58.4724 22 56.3636Z" fill="#18181B"/>
<path fill-rule="evenodd" clip-rule="evenodd" d="M22 71.6364C22 69.5276 23.7294 67.8182 25.8626 67.8182H41.3132C43.4464 67.8182 45.1758 69.5276 45.1758 71.6364C45.1758 73.7451 43.4464 75.4545 41.3132 75.4545H25.8626C23.7294 75.4545 22 73.7451 22 71.6364Z" fill="#18181B"/>
<path fill-rule="evenodd" clip-rule="evenodd" d="M22 86.9091C22 84.8004 23.7294 83.0909 25.8626 83.0909H41.3132C43.4464 83.0909 45.1758 84.8004 45.1758 86.9091C45.1758 89.0178 43.4464 90.7273 41.3132 90.7273H25.8626C23.7294 90.7273 22 89.0178 22 86.9091Z" fill="#18181B"/>
<path fill-rule="evenodd" clip-rule="evenodd" d="M91.605 31.1412L71.8394 50.6793L69.7977 58.7524L77.9647 56.7341L97.7303 37.196C98.1638 36.4039 98.3464 35.498 98.2493 34.5972C98.1399 33.5816 97.6817 32.6337 96.9511 31.9115C96.2204 31.1893 95.2615 30.7363 94.2341 30.6282C93.3227 30.5322 92.4063 30.7127 91.605 31.1412ZM87.1151 24.9011C89.4672 23.4004 92.2685 22.7417 95.0522 23.0347C97.836 23.3278 100.434 24.555 102.414 26.5117C104.393 28.4685 105.635 31.0367 105.931 33.7884C106.228 36.5402 105.561 39.3092 104.043 41.6342C103.895 41.8614 103.722 42.0723 103.529 42.2635L82.6708 62.8816C82.1758 63.371 81.5555 63.7181 80.8763 63.886L65.4258 67.7041C64.1095 68.0294 62.7171 67.6482 61.7577 66.6998C60.7983 65.7515 60.4126 64.3751 60.7417 63.0739L64.6043 47.8012C64.7741 47.1298 65.1253 46.5167 65.6203 46.0274L86.4785 25.4092C86.6719 25.218 86.8853 25.0477 87.1151 24.9011Z" fill="#18181B"/>
</svg>
